<?xml version="1.0" standalone="no"?>
<!DOCTYPE svg PUBLIC "-//W3C//DTD SVG 20010904//EN"
 "http://www.w3.org/TR/2001/REC-SVG-20010904/DTD/svg10.dtd">
<svg version="1.0" xmlns="http://www.w3.org/2000/svg"
 width="444.000000pt" height="444.000000pt" viewBox="0 0 444.000000 444.000000"
 preserveAspectRatio="xMidYMid meet">
<metadata>
Created by potrace 1.11, written by Peter Selinger 2001-2013
</metadata>
<g transform="translate(0.000000,444.000000) scale(0.100000,-0.100000)"
fill="#000000" stroke="none">
<path d="M100 2220 l0 -1530 2120 0 2120 0 0 1530 0 1530 -2120 0 -2120 0 0
-1530z m1279 395 c457 -330 836 -600 841 -600 5 0 384 270 841 600 458 330
838 604 845 608 12 7 14 -156 14 -1033 l0 -1040 -1700 0 -1700 0 0 1040 c0
877 2 1040 14 1033 7 -4 387 -278 845 -608z"/>
</g>
</svg>
